<?xml version="1.0" encoding="UTF-8"?>
<svg width="562px" height="418px" viewBox="0 0 562 418" version="1.1" xmlns="http://www.w3.org/2000/svg" xmlns:xlink="http://www.w3.org/1999/xlink">
    <!-- Generator: Sketch 53.2 (72643) - https://sketchapp.com -->
    <title>Homepage-illustration</title>
    <desc>Created with Sketch.</desc>
    <defs>
        <path d="M0,0 L38.3179348,0.650519031 L44.1630435,0 L27.1999585,21.6247011 C25.2058777,24.1667741 21.5285984,24.6110096 18.9865253,22.6169288 C18.6614359,22.3619187 18.3642774,22.0731856 18.1000247,21.7555635 L0,0 Z" id="path-1"></path>
        <path d="M-0.649456522,0 L44.1818644,0 L25.6540557,17.9969536 C23.656567,19.9372107 20.4851309,19.9594971 18.4605715,18.0475039 L-0.649456522,0 Z" id="path-3"></path>
    </defs>
    <g id="Homepage-illustration" stroke="none" stroke-width="1" fill="none" fill-rule="evenodd">
        <g id="Group-12" transform="translate(25.000000, 19.000000)">
            <ellipse id="Oval-8" fill="#F2F8FE" cx="256.5" cy="342.5" rx="256.5" ry="38.5"></ellipse>
            <g id="Group-9" transform="translate(18.000000, 0.000000)">
                <g id="Group-6-Copy">
                    <path d="M20.034175,266.573852 L49.0415011,256.04325 C49.8585174,255.745963 50.2813136,254.841741 49.9851614,254.023388 L35.0106424,212.64062 C34.7144902,211.822267 33.8117457,211.39943 32.9940799,211.696066 L3.98740326,222.226669 C3.1697375,222.523305 2.74759076,223.427527 3.04374293,224.24588 L18.018262,265.628648 C18.3144141,266.447651 19.2171587,266.870489 20.034175,266.573852" id="Fill-1" fill="#CCE3F7"></path>
                    <path d="M17.2039084,272.63181 L46.2112345,262.101859 C47.0282508,261.804572 47.4503976,260.90035 47.1542454,260.081997 L32.1803758,218.699229 C31.8842236,217.880226 30.9808296,217.457388 30.1638133,217.754025 L1.15713668,228.284627 C0.339470924,228.581914 -0.0826758152,229.485485 0.213476359,230.304489 L15.1879954,271.687257 C15.4841476,272.50561 16.3868921,272.928447 17.2039084,272.63181" id="Fill-5" fill="#94BEEF"></path>
                    <path d="M430.030882,184.412778 L458.458243,194.924515 L464.982034,209.109082 L449.980237,249.812709 C449.804235,250.29019 449.276227,250.533484 448.800175,250.357193 L410.892047,236.339809 C410.416645,236.164169 410.173099,235.634646 410.348452,235.157816 L428.850819,184.957262 C429.026822,184.480432 429.555479,184.236487 430.030882,184.412778" id="Fill-21" fill="#CCE3F7"></path>
                    <path d="M458.458243,194.924515 L464.982034,209.109082 L455.825346,233.549733 C455.649343,234.027214 455.121335,234.270508 454.645284,234.094217 L416.737156,220.076833 C416.261754,219.901193 416.018208,219.371671 416.193561,218.89484 L428.850819,184.957262 C429.026822,184.480432 429.555479,184.236487 430.030882,184.412778 L458.458243,194.924515 Z" id="Fill-21-Copy" fill="#94BEEF"></path>
                    <path d="M455.392029,205.562322 L464.982553,209.108952 L458.458113,194.924385 L454.917926,204.530599 C454.764004,204.946931 454.976377,205.4088 455.392029,205.562322" id="Fill-31" fill="#4A90E2"></path>
                    <path d="M233.542093,48.4378287 C238.490302,48.5705346 242.396134,52.6974273 242.263645,57.6537318 C242.131156,62.6106868 238.011003,66.5222578 233.062794,66.3895519 C228.113935,66.256846 224.208104,62.1299533 224.341242,57.1736488 C224.473732,52.2166938 228.593884,48.3051228 233.542093,48.4378287 M192.946514,61.7500502 L200.482158,63.161026 C201.951878,63.4296903 203.172207,64.5043477 203.591107,65.9328875 C204.085992,67.675628 204.727656,69.3604723 205.516745,70.9653028 C206.167501,72.3170813 205.978509,73.9368737 205.073166,75.1214689 L200.395131,81.2070744 C199.187791,82.7787284 199.294952,85.0119602 200.67115,86.4450536 L202.633808,88.5189083 C203.989223,89.9728183 206.209715,90.199199 207.8418,89.0757526 L214.179196,84.7231298 C215.408617,83.8807076 217.014074,83.757109 218.325327,84.5013028 C219.884022,85.3554343 221.528446,86.1080848 223.239764,86.696154 C224.662723,87.1716834 225.647949,88.4486522 225.857723,89.9344377 C226.133093,92.0883062 226.529261,95.1828253 226.841001,97.5461609 C227.099484,99.532846 228.745207,101.015379 230.741636,101.068721 L233.589503,101.145483 C235.585283,101.198825 237.308941,99.7858979 237.672636,97.8369429 L239.081957,90.268154 C239.350183,88.7953789 240.402302,87.5730536 241.827859,87.1736349 C243.568403,86.6577734 245.250495,86.0150606 246.852704,85.2240294 C248.201626,84.5728599 249.798639,84.7615104 251.002082,85.689801 L257.077098,90.3754896 C258.667617,91.5848045 260.876419,91.4566522 262.306522,90.0983685 L264.398422,88.1331505 C265.829175,86.7540502 266.055185,84.5513927 264.932925,82.9166384 L260.58871,76.5480571 C259.726232,75.315974 259.624267,73.6877249 260.345813,72.373026 C261.199199,70.8332474 261.929838,69.1854827 262.515647,67.4921817 C263.011832,66.067545 264.265933,65.0800571 265.768775,64.8907561 C267.919775,64.5941194 271.030672,64.1986038 273.41093,63.8876557 C275.373588,63.6274481 276.853699,61.9575657 276.906954,59.9793374 L276.982941,57.1261609 C277.036846,55.1271159 275.647009,53.4012889 273.680454,53.0363477 L266.102596,51.6240709 C264.632226,51.3554066 263.411897,50.3015657 262.993647,48.8528599 C262.498112,47.1302855 261.856449,45.4669083 261.086843,43.8828945 C260.415954,42.5311159 260.625079,40.9113235 261.531071,39.7267284 L266.230539,33.6001401 C267.437878,32.007019 267.330718,29.7952543 265.955169,28.3413443 L263.992511,26.2668391 C262.636446,24.8343962 260.417253,24.587199 258.78452,25.7106453 L252.404259,30.1036003 C251.174838,30.9460225 249.570031,31.0696211 248.258128,30.3260779 C246.699433,29.4712958 245.075142,28.7401125 243.384607,28.1526938 C241.98243,27.6771644 240.976422,26.400846 240.78743,24.9157111 C240.51206,22.741026 240.096408,19.6243893 239.785319,17.240237 C239.526185,15.2743685 237.880463,13.7918356 235.884033,13.7384931 L233.036166,13.6623824 C231.061169,13.6090398 229.317378,15.0005 228.953683,16.949455 L227.543713,24.5397111 C227.275487,26.0118356 226.222718,27.2549775 224.776378,27.6537457 C223.056617,28.1500917 221.395957,28.7928045 219.793748,29.5838356 C218.444177,30.2350052 216.847164,30.0463547 215.64437,29.118064 L209.548571,24.4323754 C207.978835,23.2230606 205.7499,23.3297457 204.318498,24.7081955 L202.248031,26.6747145 C200.797145,28.0316972 200.571134,30.2558218 201.692096,31.8905761 L206.037609,38.2383408 C206.899438,39.4704239 207.001403,41.098673 206.279857,42.413372 C205.406338,43.9739671 204.675699,45.6002647 204.08924,47.3143824 C203.593055,48.739019 202.318172,49.7258564 200.836112,49.915808 C198.685761,50.191628 195.594998,50.6086107 193.21474,50.9202093 C191.252082,51.1797664 189.771971,52.8288322 189.719365,54.8070606 L189.642729,57.6810536 C189.590123,59.659282 191.000093,61.385109 192.946514,61.7500502" id="Fill-37" fill="#CCE3F7" opacity="0.488113839"></path>
                    <path d="M160.802963,91.3720848 C165.751172,91.5047907 169.657003,95.6316834 169.524514,100.587988 C169.392025,105.544943 165.271873,109.456514 160.323664,109.323808 C155.374805,109.191102 151.468973,105.064209 151.602112,100.107905 C151.734601,95.1509498 155.854753,91.2393789 160.802963,91.3720848 M120.207384,104.684306 L127.743028,106.095282 C129.212748,106.363946 130.433077,107.438604 130.851976,108.867144 C131.346862,110.609884 131.988525,112.294728 132.777615,113.899559 C133.42837,115.251337 133.239378,116.87113 132.334036,118.055725 L127.656001,124.14133 C126.448661,125.712984 126.555821,127.946216 127.93202,129.37931 L129.894677,131.453164 C131.250093,132.907074 133.470585,133.133455 135.102669,132.010009 L141.440066,127.657386 C142.669487,126.814964 144.274944,126.691365 145.586196,127.435559 C147.144892,128.28969 148.789316,129.042341 150.500634,129.63041 C151.923593,130.105939 152.908819,131.382908 153.118593,132.868694 C153.393963,135.022562 153.790131,138.117081 154.10187,140.480417 C154.360354,142.467102 156.006077,143.949635 158.002506,144.002978 L160.850373,144.079739 C162.846153,144.133081 164.56981,142.720154 164.933506,140.771199 L166.342827,133.20241 C166.611052,131.729635 167.663172,130.50731 169.088729,130.107891 C170.829272,129.592029 172.511365,128.949317 174.113574,128.158285 C175.462495,127.507116 177.059509,127.695766 178.262952,128.624057 L184.337968,133.309746 C185.928487,134.519061 188.137289,134.390908 189.567392,133.032625 L191.659291,131.067407 C193.090044,129.688306 193.316055,127.485649 192.193794,125.850894 L187.849579,119.482313 C186.987101,118.25023 186.885136,116.621981 187.606683,115.307282 C188.460069,113.767503 189.190707,112.119739 189.776517,110.426438 C190.272702,109.001801 191.526802,108.014313 193.029645,107.825012 C195.180645,107.528375 198.291541,107.13286 200.6718,106.821912 C202.634457,106.561704 204.114569,104.891822 204.167824,102.913593 L204.24381,100.060417 C204.297715,98.061372 202.907878,96.335545 200.941324,95.9706038 L193.363465,94.558327 C191.893096,94.2896626 190.672767,93.2358218 190.254517,91.7871159 C189.758982,90.0645415 189.117319,88.4011644 188.347713,86.8171505 C187.676824,85.465372 187.885949,83.8455796 188.791941,82.6609844 L193.491408,76.5343962 C194.698748,74.9412751 194.591588,72.7295104 193.216039,71.2756003 L191.253381,69.2010952 C189.897316,67.7686522 187.678123,67.521455 186.045389,68.6449014 L179.665128,73.0378564 C178.435707,73.8802785 176.8309,74.0038772 175.518998,73.2603339 C173.960302,72.4055519 172.336011,71.6743685 170.645476,71.0869498 C169.2433,70.6114204 168.237291,69.3351021 168.0483,67.8499671 C167.77293,65.675282 167.357278,62.5586453 167.046188,60.1744931 C166.787055,58.2086246 165.141332,56.7260917 163.144903,56.6727491 L160.297036,56.5966384 C158.322039,56.5432958 156.578248,57.9347561 156.214552,59.8837111 L154.804582,67.4739671 C154.536357,68.9460917 153.483588,70.1892336 152.037248,70.5880017 C150.317487,71.0843477 148.656827,71.7270606 147.054617,72.5180917 C145.705047,73.1692612 144.108033,72.9806107 142.90524,72.0523201 L136.809441,67.3666315 C135.239704,66.1573166 133.01077,66.2640017 131.579367,67.6424516 L129.5089,69.6089706 C128.058014,70.9659533 127.832003,73.1900779 128.952965,74.8248322 L133.298479,81.1725969 C134.160308,82.4046799 134.262272,84.0329291 133.540726,85.347628 C132.667207,86.9082232 131.936569,88.5345208 131.350109,90.2486384 C130.853925,91.6732751 129.579041,92.6601125 128.096982,92.850064 C125.946631,93.1258841 122.855867,93.5428668 120.475609,93.8544654 C118.512952,94.1140225 117.03284,95.7630882 116.980234,97.7413166 L116.903598,100.61531 C116.850992,102.593538 118.260963,104.319365 120.207384,104.684306" id="Fill-37-Copy" fill="#CCE3F7" opacity="0.789118304"></path>
                    <path d="M286.362016,17.9685508 C288.918658,18.0371173 290.936724,20.1694011 290.868269,22.7302255 C290.799815,25.291386 288.671014,27.3124173 286.114372,27.2438508 C283.557395,27.1752843 281.539329,25.0430005 281.608119,22.4821761 C281.676573,19.9210156 283.805375,17.8999843 286.362016,17.9685508 M265.387084,24.8467121 L269.280602,25.5757353 C270.039978,25.7145489 270.670497,26.2698031 270.886934,27.0079014 C271.142632,27.9083409 271.474167,28.7788666 271.881874,29.6080507 C272.218106,30.3064879 272.120458,31.1434026 271.652685,31.7554594 L269.235637,34.8997713 C268.611829,35.7118138 268.667196,36.8656805 269.378251,37.6061315 L270.392317,38.6776512 C271.092634,39.4288577 272.239918,39.5458241 273.083183,38.9653616 L276.357591,36.7164475 C276.992808,36.2811847 277.822316,36.2173237 278.499814,36.6018339 C279.305162,37.0431467 280.154803,37.4320264 281.039007,37.7358701 C281.774222,37.9815667 282.283268,38.6413512 282.391655,39.4090272 C282.533933,40.5218884 282.738625,42.1207651 282.899694,43.3418539 C283.033248,44.3683347 283.88356,45.1343301 284.915076,45.1618912 L286.386512,45.2015522 C287.417692,45.2291132 288.308272,44.4990817 288.496186,43.4920952 L289.224354,39.5814518 C289.362941,38.820498 289.906551,38.1889468 290.643108,37.9825751 C291.542412,37.7160396 292.411516,37.3839626 293.239346,36.9752525 C293.936307,36.638806 294.761452,36.736278 295.383247,37.2159074 L298.522088,39.63691 C299.343877,40.261739 300.485121,40.1955253 301.224027,39.493727 L302.304871,38.4783378 C303.044112,37.7657839 303.160887,36.6277144 302.581037,35.7830692 L300.336468,32.4925493 C299.890842,31.8559564 299.838159,31.0146723 300.210968,30.3353934 C300.651895,29.5398203 301.029402,28.6884529 301.332078,27.8135578 C301.588447,27.0774762 302.236416,26.5672607 303.012905,26.4694526 C304.124284,26.3161863 305.731623,26.1118313 306.961455,25.9511706 C307.975521,25.8167264 308.740266,24.9539313 308.767782,23.9318198 L308.807042,22.45764 C308.834894,21.4247731 308.116793,20.5330724 307.100713,20.3445145 L303.185383,19.6148191 C302.425673,19.4760055 301.795153,18.9315068 301.579051,18.1829892 C301.323018,17.2929691 300.991483,16.433535 300.593843,15.6151064 C300.247208,14.9166692 300.355259,14.0797546 300.823367,13.4676977 L303.251489,10.3022108 C303.875298,9.4790767 303.81993,8.33630166 303.109211,7.58509513 L302.095145,6.51323936 C301.394493,5.77312447 300.24788,5.64540255 299.404278,6.22586505 L296.107724,8.49561794 C295.472506,8.93088079 294.643334,8.99474175 293.9655,8.61056767 C293.160153,8.16891873 292.320914,7.79113074 291.447448,7.48762314 C290.722971,7.2419265 290.203187,6.58247808 290.105538,5.81513826 C289.96326,4.6915215 289.748501,3.08121703 289.587767,1.84937276 C289.453878,0.833647418 288.603566,0.0676520313 287.57205,0.0400909863 L286.100614,0.000766080516 C285.080172,-0.0267949645 284.17919,0.692144979 283.991275,1.69913145 L283.262772,5.6208665 C283.124185,6.38148412 282.58024,7.02379092 281.832945,7.22982653 C280.944379,7.4862787 280.086348,7.81835568 279.258519,8.22706581 C278.561222,8.56351223 277.736077,8.46604024 277.114617,7.98641083 L273.965039,5.5654083 C273.153987,4.94057924 272.00234,4.99570133 271.262763,5.70791907 L270.192994,6.72398052 C269.44335,7.42510662 269.326574,8.57426775 269.905753,9.41891295 L272.150994,12.6986773 C272.596284,13.3352702 272.648967,14.1765543 272.276158,14.8558333 C271.824828,15.6621619 271.447322,16.5024376 271.14431,17.3880883 C270.887941,18.1241699 270.229234,18.6340492 269.463483,18.7321934 C268.35244,18.8747042 266.755503,19.0901509 265.525671,19.2511477 C264.511605,19.3852557 263.746861,20.2372954 263.71968,21.2594068 L263.680084,22.7443421 C263.652903,23.7664536 264.381407,24.6581542 265.387084,24.8467121" id="Fill-37-Copy-2" fill="#CCE3F7" opacity="0.502566964"></path>
                    <path d="M395.527205,292.059756 L68.5933897,292.059756 L75.5588109,98.0066768 C75.8004087,91.2764069 81.3181913,85.9447529 88.0420147,85.9447529 L375.207009,85.9447529 C381.909401,85.9447529 387.417441,91.2425799 387.688265,97.9507322 L395.527205,292.059756 Z" id="Fill-39" fill="#4A4A4A"></path>
                    <polygon id="Fill-41" fill="#FFFFFF" points="377.646887 277.083833 84.1613821 277.083833 88.7855125 103.545521 373.022757 103.545521"></polygon>
                    <polygon id="Fill-43" fill="#4D94E5" points="377.646887 277.083833 84.1613821 277.083833 88.7855125 103.545521 373.022757 103.545521"></polygon>
                    <path d="M431.133789,339.971329 C430.930509,342.546734 428.840558,344.863232 425.871242,344.863232 L37.8138266,344.863232 C35.1224788,344.863232 33.2455495,342.722374 33.1344924,340.388311 C33.0877315,339.350734 33.3747913,338.285183 34.0963375,337.34063 L68.5928701,292.059952 L395.527335,292.059952 L430.033609,336.321917 C430.911674,337.451869 431.244846,338.739246 431.133789,339.971329" id="Fill-45" fill="#FFFFFF"></path>
                    <path d="M431.152168,340.184764 L431.152168,340.536695 C431.152168,347.530425 425.492155,353.199698 418.509198,353.199698 L45.7770079,353.199698 C38.784959,353.199698 33.1249454,347.530425 33.1249454,340.536695 C33.1249454,340.490508 33.1249454,340.434563 33.1340378,340.387726 C33.2450948,342.722439 35.1226736,344.862646 37.8140215,344.862646 L425.871437,344.862646 C428.840103,344.862646 430.930054,342.546799 431.133983,339.971394 C431.152168,340.045553 431.152168,340.110605 431.152168,340.184764" id="Fill-47" fill="#A6ADC9"></path>
                    <polygon id="Fill-49" fill="#CCE3F7" points="298.109376 339.971329 164.314838 339.971329 168.938968 322.166623 293.485246 322.166623"></polygon>
                    <polygon id="Fill-51" fill="#CCE3F7" points="390.594777 318.461657 73.0631443 318.461657 86.011359 295.919871 377.646563 295.919871"></polygon>
                    <g id="Group" transform="translate(140.282609, 130.103806)">
                        <path d="M7.93378804,119.695502 L179.243478,119.695502 C183.551299,119.695502 187.043478,116.203323 187.043478,111.895502 L187.043478,8.00946713 C187.043478,3.70164608 183.551299,0.209467128 179.243478,0.209467128 L7.93378804,0.209467128 C3.62596699,0.209467128 0.133788043,3.70164608 0.133788043,8.00946713 L0.133788043,111.895502 C0.133788043,116.203323 3.62596699,119.695502 7.93378804,119.695502 Z" id="Fill-89" fill="#FFFFFF"></path>
                        <path d="M62.0232722,38.7081031 C62.0232722,53.4402832 50.1014554,65.3816041 35.3974232,65.3816041 C20.6893055,65.3816041 8.76748868,53.4402832 8.76748868,38.7081031 C8.76748868,23.976667 20.6893055,12.0346021 35.3974232,12.0346021 C50.1014554,12.0346021 62.0232722,23.976667 62.0232722,38.7081031 Z" id="Fill-125-Copy" fill="#F2F8FE"></path>
                        <path d="M165.444778,22.7159294 L74.5388363,22.7159294 C72.6702542,22.7159294 71.1578986,21.9502685 71.1578986,21.0057149 L71.1578986,16.1547945 C71.1578986,15.2102408 72.6702542,14.4445799 74.5388363,14.4445799 L165.444778,14.4445799 C167.312074,14.4445799 168.825715,15.2102408 168.825715,16.1547945 L168.825715,21.0057149 C168.825715,21.9502685 167.312074,22.7159294 165.444778,22.7159294" id="Fill-91" fill="#4D94E5"></path>
                        <path d="M165.444778,38.9753924 L74.5388363,38.9753924 C72.6702542,38.9753924 71.1578986,38.2097315 71.1578986,37.2651779 L71.1578986,32.4142574 C71.1578986,31.4697038 72.6702542,30.7040429 74.5388363,30.7040429 L165.444778,30.7040429 C167.312074,30.7040429 168.825715,31.4697038 168.825715,32.4142574 L168.825715,37.2651779 C168.825715,38.2097315 167.312074,38.9753924 165.444778,38.9753924" id="Fill-92" fill="#A0D0FE"></path>
                        <path d="M121.588403,55.2349204 L72.966235,55.2349204 C71.9668007,55.2349204 71.1578986,54.4692595 71.1578986,53.5247059 L71.1578986,48.6737855 C71.1578986,47.7292318 71.9668007,46.9635709 72.966235,46.9635709 L121.588403,46.9635709 C122.587149,46.9635709 123.396739,47.7292318 123.396739,48.6737855 L123.396739,53.5247059 C123.396739,54.4692595 122.587149,55.2349204 121.588403,55.2349204" id="Fill-93" fill="#A0D0FE"></path>
                        <path d="M27.9074636,87.7535211 L11.4078682,87.7535211 C10.8785239,87.7535211 10.4493008,87.4523308 10.4493008,87.0815349 L10.4493008,80.1548083 C10.4493008,79.7833619 10.8785239,79.4821716 11.4078682,79.4821716 L27.9074636,79.4821716 C28.4368079,79.4821716 28.866031,79.7833619 28.866031,80.1548083 L28.866031,87.0815349 C28.866031,87.4523308 28.4368079,87.7535211 27.9074636,87.7535211" id="Fill-94" fill="#DEECFE"></path>
                        <path d="M27.9074636,104.013374 L11.4078682,104.013374 C10.8785239,104.013374 10.4493008,103.712184 10.4493008,103.340738 L10.4493008,96.4140111 C10.4493008,96.0425647 10.8785239,95.7413744 11.4078682,95.7413744 L27.9074636,95.7413744 C28.4368079,95.7413744 28.866031,96.0425647 28.866031,96.4140111 L28.866031,103.340738 C28.866031,103.712184 28.4368079,104.013374 27.9074636,104.013374" id="Fill-95" fill="#DEECFE"></path>
                        <path d="M165.074372,87.7535211 L50.7999802,87.7535211 C49.4539069,87.7535211 48.3627717,86.9878602 48.3627717,86.0433066 L48.3627717,81.1923862 C48.3627717,80.2478325 49.4539069,79.4821716 50.7999802,79.4821716 L165.074372,79.4821716 C166.420446,79.4821716 167.511581,80.2478325 167.511581,81.1923862 L167.511581,86.0433066 C167.511581,86.9878602 166.420446,87.7535211 165.074372,87.7535211" id="Fill-99" fill="#DEECFE"></path>
                        <path d="M165.074372,104.013374 L50.7999802,104.013374 C49.4539069,104.013374 48.3627717,103.247063 48.3627717,102.302509 L48.3627717,97.4515889 C48.3627717,96.5076858 49.4539069,95.7413744 50.7999802,95.7413744 L165.074372,95.7413744 C166.420446,95.7413744 167.511581,96.5076858 167.511581,97.4515889 L167.511581,102.302509 C167.511581,103.247063 166.420446,104.013374 165.074372,104.013374" id="Fill-100" fill="#DEECFE"></path>
                        <path d="M39.3745356,49.6048083 L39.3745356,49.6067599 C39.3745356,50.3503031 37.7184215,50.9735003 35.477147,51.1504415 C35.4745492,51.1504415 35.4732503,51.1517426 35.4706524,51.1504415 C33.8684432,51.1907737 32.1110139,51.1023031 30.8309351,50.8271336 C29.6989323,50.5350505 28.9806334,50.0966007 28.9806334,49.6067599 C28.9832312,49.576836 28.9864785,49.5456111 28.9903753,49.5156872 C29.4086253,45.1936388 30.5614106,39.3272581 30.032753,33.7750782 C30.0658753,34.1120471 30.1087394,34.4477149 30.159397,34.7807806 C30.9270546,39.8105938 33.6015166,44.3733343 36.7851524,44.3733343 C37.4099296,44.3733343 38.0340573,44.2146076 38.6406497,43.9212235 C38.7887258,45.9553965 39.0407149,47.8939433 39.3349187,49.4109536 C39.3362177,49.4122547 39.3375166,49.4135557 39.3362177,49.4148567 C39.3492068,49.4786076 39.3615465,49.5423585 39.3745356,49.6048083" id="Fill-104" fill="#FFCCCB"></path>
                        <polygon id="Fill-107" fill="#4D94E5" points="37.2660101 52.9024844 35.4813035 54.6901107 34.0031405 56.170692 32.5217302 54.6901107 30.7370236 52.9024844 32.6620128 50.9749965 34.0031405 49.6342768"></polygon>
                        <path d="M44.3523601,32.5223087 C44.3523601,37.5430145 41.7136182,42.4414228 38.6410394,43.9207031 C38.0337976,44.2147377 37.4096698,44.3734644 36.7848927,44.3734644 C35.2833492,44.3734644 33.8961101,43.3580042 32.7660557,41.7577273 C31.5022133,39.9648969 30.5650476,37.438281 30.1591372,34.7809107 C30.1084796,34.4471945 30.0656155,34.1115266 30.0331427,33.7745578 C30.027947,33.7179626 30.0234008,33.6626685 30.0162568,33.6067239 C30.0149579,33.5833052 30.0123601,33.560537 30.0104117,33.5377689 C30.0104117,33.5332152 30.0091128,33.52671 30.0091128,33.5221564 C29.9623519,32.9880803 29.938322,32.4527031 29.938322,31.9205785 C29.938322,30.6982533 30.0656155,29.5865163 30.2994198,28.5925232 C31.2151535,24.6972152 33.7720639,22.5960388 36.7848927,22.5960388 C39.5113111,22.5960388 42.2416264,24.6308623 43.5515802,28.0213675 C44.0581562,29.3315128 44.3523601,30.8452706 44.3523601,32.5223087" id="Fill-110" fill="#FFCCCB"></path>
                        <path d="M44.2296128,27.1875972 C44.0406209,29.6485107 41.141447,27.864137 39.6256155,27.4595142 C39.1307296,27.3281093 38.6442867,27.1531197 38.1383601,27.093272 C37.3603111,27.0041509 35.4385693,25.7408429 35.4385693,25.7408429 C35.2781535,25.299791 35.1352731,24.8502824 34.9923927,24.4033758 C34.8261318,23.8933689 34.6637677,23.3807599 34.5007541,22.8707529 C34.3864497,22.5155696 34.2747432,22.1603862 34.1773247,21.8026007 C33.9831372,21.0577564 33.8714307,20.2986007 33.7772595,19.5361924 C38.1214742,19.2389052 45.7857106,19.3501439 46.0312052,22.5955834 C46.1000476,23.503708 44.264034,26.7491474 44.2296128,27.1875972" id="Fill-111" fill="#14181A"></path>
                        <path d="M35.440063,25.7407779 L35.440063,25.7466325 C35.3718701,25.8155875 34.1417995,27.1218298 33.6384707,26.5487225 C33.3864815,26.2566394 32.923419,25.9469924 32.7175413,25.9645564 C32.4999734,25.9587017 32.2882505,26.1135253 32.2369435,26.2280166 C32.1453701,26.4511446 32.0823728,26.685982 32.0083348,26.9156152 C31.8823402,27.3046256 31.6082696,27.6428955 31.2991283,27.9694561 C30.8932179,28.3935945 30.4236609,28.7943142 30.160631,29.2646394 L30.0060603,29.2529301 L28.2278484,29.1494976 C28.3018864,27.2135529 27.9245522,25.5117952 28.4674978,22.8479197 C28.9825168,20.3557813 30.7159163,19.8971654 31.258862,19.8054422 C31.7569951,19.7195737 32.654544,19.6161412 33.775506,19.5361273 C33.8729245,20.2985356 33.9813837,21.0602934 34.1762207,21.8051377 C34.2729897,22.1603211 34.387294,22.5155045 34.5022478,22.8706879 C34.6620141,23.3806948 34.828275,23.8965564 34.9938864,24.4059128 C35.1367668,24.8528194 35.2796473,25.299726 35.440063,25.7407779" id="Fill-112" fill="#14181A"></path>
                        <path d="M38.9990848,47.3588263 C38.6652641,47.4232277 38.2457152,47.486328 37.9099462,47.486328 C35.2192478,47.486328 31.2997777,46.6705772 30.1593321,34.7810408 C31.5673538,36.6063972 34.3931391,44.7417882 36.2642234,44.7417882 C37.0422723,44.7417882 37.8917614,44.5707017 38.6477288,44.2356844 C38.7328076,45.3266048 38.8614,46.355726 38.9990848,47.3588263" id="Fill-113" fill="#C97270"></path>
                        <path d="M29.395831,64.5067031 C28.2547359,64.2347862 27.1389696,63.8906616 26.0615212,63.4723779 C22.2602522,62.0119626 18.8804804,59.6967654 16.1605565,56.7577204 L16.3865674,56.3459419 C16.915225,55.374717 17.7705592,54.6214159 18.7999478,54.2174436 C18.7999478,54.2174436 28.9067902,49.6468969 28.9808283,49.6072152 C28.9808283,49.6072152 27.9975511,54.8302325 28.7522196,60.3271183 C28.9782304,61.9774851 29.1983962,63.3695958 29.395831,64.5067031" id="Fill-114" fill="#FFC800"></path>
                        <path d="M52.7321677,58.8292983 C49.6608878,61.4756097 45.9745726,63.4297689 41.919366,64.4380734 C40.9010182,64.6956789 39.8599394,64.8901841 38.8019747,65.0196374 C38.9675861,64.1024055 39.1507329,62.9939211 39.3423226,61.6935336 C39.3566106,61.5848969 39.3741459,61.4756097 39.3910318,61.3643709 C39.439741,61.0293536 39.4878008,60.6852291 39.5371595,60.3274436 C40.291828,54.8305578 39.3747954,49.60689 39.3747954,49.60689 C39.5059856,49.6986131 49.2341948,54.102627 49.2341948,54.102627 C50.4558226,54.5723017 51.4248117,55.5324678 51.9080073,56.7495889 L52.7321677,58.8292983 Z" id="Fill-115" fill="#FFC800"></path>
                        <path d="M43.9426179,34.7810408 C42.8573761,35.5922381 40.14005,36.394328 37.0947484,36.394328 C36.0289902,36.394328 35.0197348,36.2538159 34.112444,36.03329 C32.9135473,35.7418574 31.998463,34.4603349 31.8042755,33.4845564 L31.2989984,27.9694561 C30.893088,28.3935945 30.4241804,28.7943142 30.1605011,29.2646394 L30.0065799,29.2529301 L30.1605011,34.7641273 C30.1208842,34.7777882 30.0897103,34.8168194 30.1033489,34.8669093 L32.3095527,43.1148401 C32.6212918,44.2773176 33.671463,45.0852623 34.8755554,45.0852623 L39.5081288,45.0852623 C40.7089739,45.0852623 41.7617429,44.2773176 42.0734821,43.1148401 L44.248512,34.9879059 C44.2965717,34.8077121 44.0919929,34.6691516 43.9426179,34.7810408" id="Fill-116" fill="#14181A"></path>
                        <path d="M35.5215698,65.2226644 C34.3720318,65.2226644 33.2393796,65.1485052 32.1294584,65.005391 L32.5217302,54.6901107 L34.0031405,56.170692 L35.4813035,54.6901107 L35.8787709,65.2200623 C35.7618688,65.2226644 35.6417193,65.2226644 35.5215698,65.2226644" id="Fill-117" fill="#4D94E5"></path>
                        <path d="M29.9380622,31.9207087 C29.9380622,32.872418 30.0153476,33.8345356 30.1588774,34.7803903 C29.3749834,34.650937 28.9242606,33.2614284 27.9890432,31.6897744 C27.1622851,30.3015668 28.0429481,28.6388401 29.0658421,28.3558644 C29.4724019,28.2439751 29.9023421,28.3389509 30.2998095,28.5926533 C30.0653557,29.5866464 29.9380622,30.6983834 29.9380622,31.9207087" id="Fill-118" fill="#FFCCCB"></path>
                        <path d="M34.0397049,48.8056457 L34.0397049,50.660926 L31.0021967,52.9234311 L28.8304141,54.5367183 C28.7128625,54.6245384 28.518675,54.5503792 28.532963,54.420926 L29.0694141,48.527874 L29.1454005,47.6756941 C30.2780527,48.2279848 31.5113707,48.5935765 32.8070364,48.7366907 C33.2122973,48.783528 33.6240527,48.8056457 34.0397049,48.8056457" id="Fill-119" fill="#DEECFE"></path>
                        <path d="M34.0397049,48.8056457 L34.0397049,50.660926 L37.2291859,52.9234311 L39.5087783,54.5367183 C39.6328245,54.6245384 39.8361043,54.5503792 39.8218163,54.420926 L39.258088,48.527874 L39.1782049,47.6756941 C37.98905,48.2279848 36.6940337,48.5935765 35.3347212,48.7366907 C34.9086777,48.783528 34.4761397,48.8056457 34.0397049,48.8056457" id="Fill-120" fill="#DEECFE"></path>
                    </g>
                    <path d="M355.467038,294.793302 L349.827807,300.441759 L344.190524,306.088264 C343.60991,306.669828 343.606663,307.614382 344.182082,308.198548 C344.182082,308.198548 410.068796,375.213067 410.138288,375.282022 C411.580082,376.726825 415.975603,374.665981 419.953524,370.681552 C423.932745,366.695171 425.989573,362.29506 424.54713,360.849607 C424.478938,360.781302 357.573875,294.784846 357.573875,294.784846 C356.990014,294.210437 356.047003,294.213039 355.467038,294.793302" id="Fill-122" fill="#4A4A4A"></path>
                    <polygon id="Fill-123" fill="#657786" points="337.440203 288.033369 337.440203 288.033369 332.877122 292.604566 345.264855 305.012566 354.392317 295.870172 342.003934 283.462172"></polygon>
                    <path d="M344.218256,248.187192 C344.218256,273.948396 323.370702,294.829406 297.659368,294.829406 C271.94024,294.829406 251.092686,273.948396 251.092686,248.187192 C251.092686,222.426638 271.94024,201.544977 297.659368,201.544977 C323.370702,201.544977 344.218256,222.426638 344.218256,248.187192 M257.581406,208.043662 C247.319343,218.321863 240.980648,232.509683 240.980648,248.180687 C240.980648,279.535704 266.361408,304.958638 297.659368,304.958638 C310.985566,304.958638 323.234316,300.352313 332.911218,292.637157 C334.599805,291.297738 336.210457,289.860091 337.73733,288.330721 C339.256408,286.796147 340.691707,285.188714 342.036082,283.497365 L342.00361,283.464839 L342.00361,283.458334 L342.042577,283.497365 C349.732142,273.804631 354.330294,261.529337 354.330294,248.187192 C354.330294,216.832174 328.962523,191.416396 297.659368,191.416396 C282.006816,191.416396 267.842169,197.771967 257.581406,208.043662" id="Fill-124" fill="#657786"></path>
                    <path d="M344.464595,248.303114 C344.464595,274.064318 323.61769,294.945329 297.905707,294.945329 C272.186579,294.945329 251.339674,274.064318 251.339674,248.303114 C251.339674,222.543211 272.186579,201.6609 297.905707,201.6609 C323.61769,201.6609 344.464595,222.543211 344.464595,248.303114 Z" id="Fill-125" fill="#DEECFE" opacity="0.721986607"></path>
                    <path d="M323.613858,221.676004 C323.826231,221.836032 324.01782,222.027935 324.176937,222.240655 C336.942655,239.307672 335.467089,257.322496 326.514981,269.474191 C324.767293,271.845333 320.995899,270.127963 321.660293,267.256572 C324.040551,256.972516 322.009701,244.986053 313.461554,233.348267 C313.303087,233.132945 313.111497,232.93779 312.898475,232.77516 C301.20631,223.853942 289.036793,221.718288 278.60782,224.147976 C275.746315,224.814108 274.036945,221.030039 276.401617,219.282094 C288.552299,210.305582 306.561728,208.826952 323.613858,221.676004" id="Fill-126" fill="#FFFFFF"></path>
                    <path d="M69.7607228,138.721232 L69.6477174,137.425398 C70.6991875,137.333675 71.805212,137.27773 72.9359158,137.259516 L72.9560489,138.560554 C71.856519,138.578118 70.781019,138.632111 69.7607228,138.721232 L69.7607228,138.721232 Z M79.3765761,138.814907 C78.2666549,138.71928 77.1866087,138.649024 76.165663,138.60609 L76.2195679,137.306353 C77.2593478,137.349938 78.3595272,137.420844 79.4882826,137.519073 L79.3765761,138.814907 Z M85.785413,139.581869 C84.6943261,139.421841 83.6279185,139.276775 82.5842418,139.150574 L82.7401114,137.858644 C83.7941793,137.986796 84.8722772,138.132512 85.9744049,138.295142 L85.785413,139.581869 Z M63.4889212,139.824512 L63.1440598,138.570311 C64.1864375,138.282782 65.2723288,138.040138 66.3725082,137.848235 L66.5946223,139.130408 C65.5360082,139.314505 64.4910326,139.548042 63.4889212,139.824512 L63.4889212,139.824512 Z M92.0851413,140.744346 C91.2934538,140.521218 90.5011168,140.341675 89.728913,140.21027 L88.9807391,140.08472 L89.1950598,138.801246 L89.9458315,138.927446 C90.7634973,139.066657 91.6012962,139.256609 92.4371467,139.492097 L92.0851413,140.744346 Z M57.5736712,142.133204 L56.9813668,140.97463 C57.9691902,140.467875 58.9849402,140.00991 60.0006902,139.613744 L60.4728451,140.825661 C59.4980109,141.206215 58.5225272,141.645965 57.5736712,142.133204 L57.5736712,142.133204 Z M97.9685679,143.140208 C96.9872391,142.628249 96.0156522,142.173536 95.0804348,141.787779 L95.5753207,140.584318 C96.5462582,140.985038 97.5529158,141.456664 98.5680163,141.986837 L97.9685679,143.140208 Z M52.1701929,145.545176 L51.4083804,144.491336 C52.072125,144.009952 52.7423641,143.542228 53.4165,143.087516 C53.6496549,142.931391 53.8821603,142.777869 54.1153152,142.628249 L54.8167283,143.723723 C54.5913668,143.868138 54.3660054,144.016457 54.1412935,144.167377 C53.4794973,144.613633 52.8215978,145.0729 52.1701929,145.545176 L52.1701929,145.545176 Z M103.457774,146.468913 C102.504372,145.822298 101.620462,145.251142 100.754736,144.72292 L101.430821,143.611834 C102.314731,144.151114 103.215527,144.733329 104.186465,145.392304 L103.457774,146.468913 Z M47.1641821,149.580346 L46.2952092,148.613024 C47.0894946,147.896803 47.9324891,147.180581 48.7995136,146.482574 L49.6132826,147.497384 C48.7644429,148.179779 47.9402826,148.880388 47.1641821,149.580346 L47.1641821,149.580346 Z M108.704734,150.256886 C107.841606,149.608318 106.973932,148.963003 106.100413,148.329398 L106.862226,147.275557 C107.74159,147.913066 108.615758,148.563585 109.484082,149.216706 L108.704734,150.256886 Z M113.902984,154.165855 C113.037908,153.528346 112.168935,152.874574 111.296065,152.215599 L112.078011,151.17672 C112.946984,151.833093 113.81141,152.482962 114.67259,153.117218 L113.902984,154.165855 Z M42.6829321,154.169107 L41.6925109,153.326685 C42.3841821,152.510934 43.1330054,151.69128 43.9175489,150.890491 L44.8449728,151.801218 C44.081212,152.58054 43.3544701,153.376775 42.6829321,154.169107 L42.6829321,154.169107 Z M119.300617,157.875765 C118.435541,157.339087 117.539291,156.748415 116.55991,156.069924 L117.298992,154.99982 C118.260187,155.665952 119.138253,156.244263 119.985144,156.769882 L119.300617,157.875765 Z M38.9790815,159.3609 L37.8568207,158.705827 C38.3971685,157.776235 39.0037609,156.841439 39.658413,155.928111 L40.7137799,156.686616 C40.0825082,157.566768 39.4992962,158.467087 38.9790815,159.3609 L38.9790815,159.3609 Z M47.1466467,164.471377 C46.1289484,164.19946 45.0930652,164.019917 44.0662745,163.937301 L44.170837,162.640817 C45.2742636,162.729287 46.388731,162.922491 47.4811168,163.214574 L47.1466467,164.471377 Z M37.8782527,164.576111 L37.5223505,163.324512 C38.612788,163.014215 39.719462,162.798242 40.8111984,162.6831 L40.9469348,163.976983 C39.9292364,164.084318 38.89725,164.285329 37.8782527,164.576111 L37.8782527,164.576111 Z M36.4215217,165.160927 L35.178462,164.782976 C35.4934484,163.742796 35.8850707,162.692858 36.342288,161.663087 L37.5288451,162.191958 C37.0937092,163.172291 36.7209212,164.171488 36.4215217,165.160927 L36.4215217,165.160927 Z M52.7586005,167.142408 C51.9130082,166.51726 51.0135109,165.977329 50.0854375,165.538228 L50.6413723,164.36209 C51.6447826,164.837619 52.617019,165.420484 53.5295054,166.095723 L52.7586005,167.142408 Z M32.1467989,167.172983 L31.4609728,166.068401 C32.4293125,165.46537 33.414538,164.933896 34.3900217,164.48699 L34.9297201,165.670934 C34.0042446,166.094422 33.0683777,166.599875 32.1467989,167.172983 L32.1467989,167.172983 Z M27.1271495,171.081301 L26.2393424,170.132194 C27.0628533,169.358727 27.9064973,168.632747 28.746894,167.975073 L29.546375,169.000291 C28.7365027,169.634547 27.9233832,170.334505 27.1271495,171.081301 L27.1271495,171.081301 Z M35.4343478,171.38054 L34.1354348,171.359723 C34.1529701,170.25254 34.2516875,169.132997 34.4276902,168.031668 L35.7103668,168.237232 C35.5434565,169.278062 35.4505842,170.335156 35.4343478,171.38054 L35.4343478,171.38054 Z M56.9976033,171.701246 C56.4423179,170.824346 55.799356,169.991682 55.0882011,169.226671 L56.038356,168.339363 C56.8047147,169.163571 57.4963859,170.059986 58.0945353,171.003889 L56.9976033,171.701246 Z M22.8063152,175.806671 L21.7899158,174.996775 C22.4841848,174.122478 23.2024837,173.278104 23.9253288,172.485121 L24.8839266,173.362021 C24.1812147,174.133536 23.4823995,174.955792 22.8063152,175.806671 L22.8063152,175.806671 Z M59.2323832,177.482408 C59.0680707,176.474754 58.7907527,175.465799 58.4088723,174.484817 L59.6188098,174.011889 C60.0338125,175.07809 60.3351603,176.175516 60.5144103,177.272941 L59.2323832,177.482408 Z M34.9888207,177.984609 C34.6985136,177.012083 34.4815951,175.953689 34.326375,174.748277 L35.6077527,174.529702 L35.6142473,174.580443 C35.7610245,175.716249 35.9630054,176.70764 36.2331793,177.611862 L34.9888207,177.984609 Z M19.1277935,181.071972 L18.0211196,180.390228 C18.5958886,179.455433 19.202481,178.529093 19.8246603,177.637882 L20.8891196,178.382727 C20.2812283,179.254422 19.6882745,180.158644 19.1277935,181.071972 L19.1277935,181.071972 Z M38.6803315,183.674048 C37.9971033,183.12501 37.3944076,182.509619 36.8871821,181.84609 C36.7053342,181.608 36.5351766,181.362104 36.3754103,181.109702 L37.4736413,180.414298 C37.6119755,180.634173 37.7607011,180.848194 37.9191685,181.055709 C38.3620978,181.636623 38.8920543,182.175903 39.4934511,182.659239 L38.6803315,183.674048 Z M59.9545788,184.029882 L58.749837,183.541993 C59.0810598,182.72364 59.2901848,181.775834 59.3720163,180.725246 L59.3830571,180.575626 L60.6793723,180.661495 L60.6676821,180.827377 C60.5741603,182.010671 60.3345109,183.087931 59.9545788,184.029882 L59.9545788,184.029882 Z M44.7059891,186.60854 C43.5168342,186.246851 42.4945897,185.864346 41.5808043,185.440208 L42.1276467,184.260166 C42.9855788,184.658934 43.9526196,185.019322 45.0833234,185.363446 L44.7059891,186.60854 Z M16.0837908,186.732138 L14.9050272,186.184401 C15.3576984,185.207322 15.8538832,184.217232 16.3792935,183.240803 L17.522337,183.858145 C17.0092663,184.811806 16.5254212,185.778478 16.0837908,186.732138 L16.0837908,186.732138 Z M51.1291141,188.102131 C50.0601087,187.954464 49.0144837,187.719626 48.2227962,187.532277 L47.8837799,187.450962 L48.1857772,186.185702 L48.5221957,186.265716 C49.2859565,186.447211 50.2919647,186.672941 51.3064158,186.813453 L51.1291141,188.102131 Z M54.5381114,188.17499 L54.3718505,186.88501 C55.4454022,186.74645 56.3234674,186.40818 57.0567038,185.851986 L57.8405978,186.889564 C56.934606,187.576512 55.8240353,188.009107 54.5381114,188.17499 L54.5381114,188.17499 Z M13.8028995,192.716913 L12.5572418,192.347419 C12.8644348,191.310491 13.2209864,190.257952 13.6184538,189.220374 L14.8309891,189.686145 C14.4458614,190.692498 14.0997011,191.711862 13.8028995,192.716913 L13.8028995,192.716913 Z M12.531913,198.970353 L11.2407935,198.82854 C11.3589946,197.748678 11.5323995,196.647349 11.755163,195.556429 L13.0274484,195.817938 C12.8124783,196.869176 12.6462174,197.930173 12.531913,198.970353 L12.531913,198.970353 Z M11.1810435,205.454727 C11.0881712,204.469841 11.0407609,203.462837 11.0407609,202.461689 L11.0420598,202.139031 L12.3409728,202.15074 L12.3396739,202.461689 C12.3396739,203.421855 12.3851359,204.387875 12.4741114,205.332429 L11.1810435,205.454727 Z M12.5091821,211.95146 C12.1727636,210.901522 11.89025,209.82036 11.6694348,208.739197 L12.9417201,208.477689 C13.1534429,209.513315 13.4236168,210.548941 13.7457473,211.553993 L12.5091821,211.95146 Z M15.1823451,218.014298 C14.6322554,217.050879 14.1289266,216.054934 13.6866467,215.054436 L14.8745027,214.527516 C15.2985978,215.487682 15.7817935,216.443294 16.3098016,217.367682 L15.1823451,218.014298 Z M18.9972527,223.415557 C18.2770054,222.571834 17.5924783,221.694284 16.9638043,220.806976 L18.0230679,220.053675 C18.6290109,220.909758 19.2888587,221.756083 19.9844266,222.569882 L18.9972527,223.415557 Z" id="Fill-127" fill="#A6C9F2"></path>
                    <path d="M472.396489,233.730187 C471.884068,232.814907 471.317092,231.902879 470.711149,231.020775 L471.782103,230.283737 C472.410128,231.198367 472.997886,232.144221 473.529141,233.093329 L472.396489,233.730187 Z M474.945606,239.557536 C474.624774,238.557689 474.245492,237.55654 473.818149,236.582062 L475.007304,236.058394 C475.452832,237.073855 475.847701,238.117287 476.182171,239.160069 L474.945606,239.557536 Z M476.23088,245.777149 C476.129565,244.728512 475.969799,243.670118 475.755478,242.63319 L477.027764,242.368429 C477.251826,243.452194 477.418087,244.557426 477.523948,245.652249 L476.23088,245.777149 Z M477.451859,252.281689 L476.162038,252.131419 C476.284785,251.069772 476.353628,250.001619 476.364019,248.954284 L477.662932,248.968595 C477.651891,250.060817 477.580451,251.175156 477.451859,252.281689 L477.451859,252.281689 Z M476.050981,258.751751 L474.813117,258.357536 C475.136546,257.337522 475.413864,256.300595 475.637927,255.274727 L476.906315,255.553149 C476.674459,256.618048 476.38675,257.694007 476.050981,258.751751 L476.050981,258.751751 Z M429.98503,263.616983 L429.31544,262.501993 C430.288976,261.915875 431.439813,261.603626 432.735478,261.574353 L432.764704,262.875391 C431.682709,262.89946 430.772821,263.142104 429.98503,263.616983 L429.98503,263.616983 Z M438.842318,264.223917 L438.515641,264.108775 C437.773962,263.847917 436.799777,263.518104 435.805459,263.270907 L436.117848,262.008249 C437.165421,262.267806 438.177924,262.61063 438.942984,262.880595 L439.226147,262.980125 L438.842318,264.223917 Z M473.531739,264.85427 L472.375057,264.263599 C472.865397,263.299529 473.316769,262.32245 473.715535,261.358381 L474.915731,261.856028 C474.503326,262.851972 474.037666,263.860277 473.531739,264.85427 L473.531739,264.85427 Z M444.663397,266.779806 C443.850277,266.291917 442.92675,265.831349 441.83956,265.370782 L442.345486,264.172526 C443.489179,264.656512 444.465313,265.144401 445.330389,265.664166 L444.663397,266.779806 Z M427.117679,268.596706 L425.835003,268.391792 L425.863579,268.233716 C426.079198,267.066685 426.431853,266.019349 426.910503,265.121633 L428.056144,265.735073 C427.639842,266.514394 427.331351,267.435529 427.139761,268.472457 L427.117679,268.596706 Z M470.157163,270.507931 L469.08491,269.773495 C469.694101,268.880983 470.277313,267.970907 470.81831,267.066685 L471.932128,267.736069 C471.378141,268.661758 470.781291,269.594602 470.157163,270.507931 L470.157163,270.507931 Z M448.885514,271.096 C448.77056,270.862464 448.645215,270.63283 448.508179,270.408401 C448.128897,269.784554 447.659989,269.193882 447.113796,268.650699 L448.02953,267.726962 C448.65041,268.344304 449.184264,269.018242 449.617451,269.730561 C449.77397,269.988166 449.918799,270.252927 450.051288,270.522242 L448.885514,271.096 Z M426.188957,275.120761 C425.888258,274.018782 425.703163,272.895336 425.641465,271.782948 L426.93778,271.709439 C426.995582,272.730754 427.16444,273.763128 427.441758,274.777938 L426.188957,275.120761 Z M466.140924,275.716637 L465.160245,274.862505 C465.859709,274.057163 466.544236,273.220595 467.194992,272.37492 L468.223731,273.169204 C467.557389,274.035045 466.856625,274.891779 466.140924,275.716637 L466.140924,275.716637 Z M450.12078,277.151682 L450.118832,277.073619 C450.092853,275.94692 449.996734,274.942519 449.822679,274.014879 L451.099511,273.776138 C451.285905,274.772734 451.389818,275.84609 451.417745,277.058657 L450.12078,277.151682 Z M461.521989,280.407529 L460.66081,279.434353 C461.442106,278.739599 462.223402,277.996055 462.983266,277.223239 L463.909391,278.135917 C463.128095,278.92955 462.325367,279.69391 461.521989,280.407529 L461.521989,280.407529 Z M429.149829,281.140014 C428.475043,280.239696 427.88144,279.274976 427.385905,278.272526 L428.55038,277.695516 C429.010196,278.626408 429.561584,279.522824 430.188959,280.35874 L429.149829,281.140014 Z M450.609821,283.730381 L449.35637,283.390159 C449.631739,282.372097 449.835019,281.331266 449.961663,280.294339 L451.250185,280.451765 C451.117046,281.549841 450.901427,282.653121 450.609821,283.730381 L450.609821,283.730381 Z M456.253598,284.383502 L455.565823,283.279571 C456.439992,282.733785 457.322603,282.123599 458.190277,281.465273 L458.974171,282.502201 C458.075323,283.183945 457.160239,283.8169 456.253598,284.383502 L456.253598,284.383502 Z M434.098687,285.665675 C433.150481,285.086062 432.245788,284.403017 431.408639,283.636055 L432.286054,282.67654 C433.060856,283.387557 433.898655,284.019862 434.774772,284.555239 L434.098687,285.665675 Z M450.274052,287.256194 L449.861647,286.02281 C450.827389,285.698851 451.811965,285.294879 452.787448,284.821301 L453.353125,285.992886 C452.328283,286.489882 451.292399,286.914671 450.274052,287.256194 L450.274052,287.256194 Z M366.82928,287.943142 C365.94537,287.180734 365.132899,286.512651 364.345109,285.899211 L365.141342,284.871391 C365.947318,285.498491 366.776024,286.180886 367.676821,286.956955 L366.82928,287.943142 Z M440.351005,288.060235 C439.263166,287.855972 438.176625,287.546325 437.119959,287.139751 L437.58497,285.924581 C438.568897,286.303183 439.580101,286.592014 440.590655,286.781965 L440.351005,288.060235 Z M443.717139,288.373135 L443.699603,287.072097 L443.717139,287.072097 C444.734188,287.072097 445.776565,286.980374 446.814397,286.80018 L447.036511,288.082353 C445.925291,288.275557 444.808226,288.373135 443.717139,288.373135 L443.717139,288.373135 Z M448.037323,289.859571 L446.912465,289.209052 C447.447617,288.281412 447.923019,287.327751 448.326332,286.37409 L449.52263,286.880844 C449.098535,287.883945 448.598454,288.886394 448.037323,289.859571 L448.037323,289.859571 Z M371.618372,292.295765 C370.824087,291.551571 370.033049,290.813882 369.24331,290.091806 L370.118777,289.13099 C370.911764,289.855668 371.707348,290.59726 372.506179,291.345356 L371.618372,292.295765 Z M444.136038,295.213343 L443.16575,294.348152 C443.886647,293.537606 444.562082,292.704291 445.171921,291.870325 L446.219495,292.64054 C445.584976,293.507031 444.883562,294.372872 444.136038,295.213343 L444.136038,295.213343 Z M376.395774,296.724498 C375.5885,295.997218 374.78837,295.258879 373.992785,294.517938 L374.877345,293.564927 C375.667734,294.300664 376.462668,295.0351 377.264747,295.757827 L376.395774,296.724498 Z M439.371625,299.771529 L438.546166,298.768429 C439.381367,298.078228 440.187992,297.363308 440.94331,296.643834 L441.83891,297.586436 C441.061511,298.327377 440.231505,299.063114 439.371625,299.771529 L439.371625,299.771529 Z M381.412177,300.941813 C380.588016,300.31081 379.752815,299.636221 378.859813,298.880969 L379.696962,297.886325 C380.574378,298.628567 381.393342,299.289495 382.201266,299.908789 L381.412177,300.941813 Z M434.053875,303.639516 L433.351163,302.545343 C434.270144,301.954021 435.162497,301.343834 436.005492,300.731696 L436.767954,301.784886 C435.905476,302.411336 434.99234,303.035183 434.053875,303.639516 L434.053875,303.639516 Z M386.915671,304.570408 C385.991495,304.068858 385.040041,303.493799 384.087288,302.860844 L384.805587,301.77708 C385.725867,302.388567 386.644198,302.94346 387.534603,303.427446 L386.915671,304.570408 Z M428.362038,306.911626 L427.780125,305.749149 C428.018476,305.628803 428.257476,305.506505 428.495826,305.379654 C429.202435,305.004955 429.905147,304.617896 430.602014,304.216526 L431.249522,305.345176 C430.539666,305.753702 429.822666,306.148567 429.104367,306.529121 C428.857573,306.659875 428.609481,306.788028 428.362038,306.911626 L428.362038,306.911626 Z M393.073818,307.01636 L392.341231,306.812097 C391.539152,306.587017 390.725383,306.309246 389.922005,305.987889 L390.403902,304.779875 C391.165065,305.084318 391.934022,305.347128 392.690639,305.559197 L393.421277,305.762159 L393.073818,307.01636 Z M399.394329,308.634851 C398.359095,308.397412 397.302429,308.138505 396.223033,307.860734 L396.546462,306.600678 C397.614168,306.875197 398.659793,307.132152 399.684636,307.36699 L399.394329,308.634851 Z M422.190902,309.289924 L421.849938,308.035073 C422.859842,307.759253 423.875592,307.424235 424.869261,307.040429 L425.33622,308.255599 C424.301636,308.654367 423.243022,309.003045 422.190902,309.289924 L422.190902,309.289924 Z M405.818753,309.872789 C404.795209,309.720567 403.709318,309.533218 402.591603,309.315945 L402.838397,308.038976 C403.937927,308.252997 405.004334,308.437093 406.009043,308.585412 L405.818753,309.872789 Z M415.667761,310.373038 L415.582033,309.074602 C416.656234,309.003696 417.720043,308.880747 418.743587,308.712263 L418.95531,309.995087 C417.890201,310.172028 416.784177,310.298879 415.667761,310.373038 L415.667761,310.373038 Z M412.366573,310.448498 C411.30731,310.427682 410.201285,310.366533 409.079674,310.265052 L409.195927,308.969218 C410.287663,309.068097 411.362514,309.127294 412.391902,309.14746 L412.366573,310.448498 Z" id="Fill-129" fill="#A6C9F2"></path>
                    <path d="M158.333037,34.8334179 C157.820616,33.9181376 157.25364,33.0061099 156.647698,32.1240061 L157.718651,31.3869681 C158.346676,32.3015978 158.934434,33.2474525 159.465689,34.1965598 L158.333037,34.8334179 Z M160.882154,40.6607674 C160.561323,39.6609196 160.18204,38.6597708 159.754698,37.6852933 L160.943852,37.1616255 C161.38938,38.1770857 161.784249,39.2205182 162.118719,40.2633002 L160.882154,40.6607674 Z M162.167428,46.8803798 C162.066113,45.8317432 161.906347,44.7733487 161.692026,43.7364214 L162.964312,43.4716601 C163.188374,44.5554248 163.354635,45.6606566 163.460496,46.7554802 L162.167428,46.8803798 Z M163.388407,53.3849196 L162.098586,53.2346497 C162.221333,52.1730027 162.290176,51.1048504 162.300567,50.0575148 L163.59948,50.0718262 C163.588439,51.1640476 163.516999,52.2783867 163.388407,53.3849196 L163.388407,53.3849196 Z M161.987529,59.8549819 L160.749665,59.4607674 C161.073094,58.4407535 161.350412,57.4038262 161.574475,56.3779577 L162.842863,56.6563798 C162.611007,57.7212795 162.323298,58.797238 161.987529,59.8549819 L161.987529,59.8549819 Z M115.921578,64.7202137 L115.251988,63.6052241 C116.225524,63.0191065 117.376361,62.7068573 118.672026,62.677584 L118.701252,63.978622 C117.619257,64.0026912 116.709369,64.2453348 115.921578,64.7202137 L115.921578,64.7202137 Z M124.778866,65.327148 L124.452189,65.2120061 C123.71051,64.951148 122.736325,64.6213348 121.742007,64.3741376 L122.054396,63.1114802 C123.101969,63.3710373 124.114472,63.7138608 124.879532,63.9838262 L125.162695,64.0833556 L124.778866,65.327148 Z M159.468287,65.9575009 L158.311605,65.3668297 C158.801945,64.4027605 159.253317,63.4256809 159.652083,62.4616117 L160.852279,62.9592587 C160.439874,63.9552034 159.974214,64.9635079 159.468287,65.9575009 L159.468287,65.9575009 Z M130.599945,67.8830373 C129.786825,67.395148 128.863298,66.9345805 127.776108,66.474013 L128.282034,65.275757 C129.425727,65.7597432 130.401861,66.2476324 131.266937,66.7673971 L130.599945,67.8830373 Z M113.054227,69.6999369 L111.771551,69.4950234 L111.800127,69.3369473 C112.015746,68.1699162 112.368401,67.1225805 112.847051,66.2248643 L113.992692,66.8383037 C113.57639,67.6176255 113.267899,68.5387605 113.076309,69.5756878 L113.054227,69.6999369 Z M156.093711,71.6111618 L155.021458,70.8767259 C155.630649,69.9842137 156.213861,69.0741376 156.754858,68.1699162 L157.868676,68.8393002 C157.314689,69.7649888 156.717839,70.6978331 156.093711,71.6111618 L156.093711,71.6111618 Z M134.822062,72.199231 C134.707108,71.9656947 134.581763,71.7360615 134.444727,71.5116324 C134.065445,70.8877847 133.596537,70.2971134 133.050344,69.75393 L133.966078,68.830193 C134.586958,69.4475355 135.120812,70.1214733 135.553999,70.8337916 C135.710518,71.0913971 135.855347,71.3561584 135.987836,71.6254733 L134.822062,72.199231 Z M112.125505,76.2239923 C111.824806,75.122013 111.639711,73.9985667 111.578013,72.8861791 L112.874328,72.8126705 C112.93213,73.8339854 113.100988,74.8663591 113.378306,75.8811688 L112.125505,76.2239923 Z M152.077472,76.8198677 L151.096793,75.9657362 C151.796257,75.1603937 152.480784,74.3238262 153.13154,73.4781515 L154.160279,74.2724352 C153.493937,75.138276 152.793173,75.9950096 152.077472,76.8198677 L152.077472,76.8198677 Z M136.057328,78.2549127 L136.05538,78.1768504 C136.029401,77.0501515 135.933282,76.0457501 135.759227,75.1181099 L137.036059,74.8793694 C137.222453,75.8759646 137.326366,76.949321 137.354293,78.1618885 L136.057328,78.2549127 Z M147.458537,81.5107605 L146.597358,80.537584 C147.378654,79.8428297 148.15995,79.0992864 148.919814,78.3264698 L149.845939,79.239148 C149.064643,80.0327812 148.261915,80.7971411 147.458537,81.5107605 L147.458537,81.5107605 Z M115.086377,82.2432449 C114.411592,81.3429265 113.817988,80.3782068 113.322453,79.375757 L114.486928,78.7987466 C114.946744,79.7296393 115.498132,80.6260546 116.125507,81.4619715 L115.086377,82.2432449 Z M136.546369,84.8336117 L135.292918,84.4933902 C135.568287,83.4753279 135.771567,82.4344975 135.898211,81.3975701 L137.186733,81.5549957 C137.053594,82.6530719 136.837975,83.7563521 136.546369,84.8336117 L136.546369,84.8336117 Z M142.190146,85.4867328 L141.502371,84.382802 C142.37654,83.8370165 143.259151,83.2268297 144.126825,82.5685044 L144.910719,83.6054317 C144.011871,84.2871757 143.096787,84.9201307 142.190146,85.4867328 L142.190146,85.4867328 Z M120.035236,86.7689058 C119.087029,86.1892933 118.182336,85.5062483 117.345187,84.7392864 L118.222602,83.7797708 C118.997404,84.4907881 119.835203,85.1230926 120.71132,85.6584698 L120.035236,86.7689058 Z M136.2106,88.3594248 L135.798195,87.1260407 C136.763937,86.8020823 137.748513,86.3981099 138.723996,85.9245321 L139.289673,87.0961169 C138.264831,87.5931134 137.228948,88.0179023 136.2106,88.3594248 L136.2106,88.3594248 Z M52.7658279,89.0463729 C51.8819176,88.2839646 51.0694475,87.6158816 50.2816567,87.0024421 L51.0778904,85.974622 C51.883866,86.6017224 52.7125725,87.2841169 53.6133687,88.0601861 L52.7658279,89.0463729 Z M126.287553,89.1634663 C125.199714,88.9592034 124.113173,88.6495563 123.056507,88.2429819 L123.521518,87.0278124 C124.505445,87.4064144 125.516649,87.6952449 126.527203,87.8851964 L126.287553,89.1634663 Z M129.653687,89.476366 L129.636151,88.1753279 L129.653687,88.1753279 C130.670736,88.1753279 131.713113,88.0836047 132.750945,87.903411 L132.973059,89.185584 C131.861839,89.3787881 130.744774,89.476366 129.653687,89.476366 L129.653687,89.476366 Z M133.973871,90.962802 L132.849013,90.3122829 C133.384165,89.3846428 133.859567,88.4309819 134.26288,87.477321 L135.459178,87.9840753 C135.035083,88.9871757 134.535002,89.9896255 133.973871,90.962802 L133.973871,90.962802 Z M57.5549203,93.3989957 C56.760635,92.654802 55.969597,91.9171134 55.1798578,91.1950373 L56.0553252,90.2342207 C56.8483116,90.9588989 57.6438959,91.7004906 58.4427274,92.4485874 L57.5549203,93.3989957 Z M130.072586,96.3165736 L129.102298,95.4513833 C129.823195,94.6408366 130.49863,93.8075217 131.108469,92.9735563 L132.156043,93.7437708 C131.521524,94.6102622 130.820111,95.476103 130.072586,96.3165736 L130.072586,96.3165736 Z M62.3323225,97.8277293 C61.525048,97.100449 60.7249176,96.3621099 59.9293334,95.6211688 L60.8138932,94.6681584 C61.6042817,95.4038954 62.3992165,96.1383314 63.2012953,96.861058 L62.3323225,97.8277293 Z M125.308173,100.87476 L124.482714,99.8716601 C125.317915,99.1814594 126.12454,98.466539 126.879858,97.747065 L127.775458,98.689667 C126.998059,99.4306082 126.168053,100.166345 125.308173,100.87476 L125.308173,100.87476 Z M67.3487247,102.045044 C66.5245643,101.414041 65.6893633,100.739452 64.7963605,99.9841999 L65.63351,98.9895563 C66.5109258,99.7317985 67.3298904,100.392726 68.1378143,101.01202 L67.3487247,102.045044 Z M119.990423,104.742747 L119.287711,103.648574 C120.206692,103.057252 121.099045,102.447065 121.94204,101.834927 L122.704502,102.888117 C121.842024,103.514567 120.928888,104.138414 119.990423,104.742747 L119.990423,104.742747 Z M72.8522192,105.673639 C71.9280426,105.172089 70.9765888,104.59703 70.0238361,103.964075 L70.742135,102.880311 C71.6624149,103.491799 72.5807464,104.046691 73.4711513,104.530677 L72.8522192,105.673639 Z M114.298586,108.014857 L113.716673,106.85238 C113.955024,106.732034 114.194024,106.609736 114.432374,106.482885 C115.138983,106.108186 115.841695,105.721127 116.538562,105.319757 L117.18607,106.448408 C116.476214,106.856933 115.759214,107.251799 115.040915,107.632352 C114.794121,107.763106 114.546029,107.891259 114.298586,108.014857 L114.298586,108.014857 Z M79.010366,108.119591 L78.277779,107.915328 C77.4757002,107.690248 76.6619312,107.412477 75.8585535,107.09112 L76.3404502,105.883106 C77.1016133,106.187549 77.8705698,106.450359 78.6271866,106.662428 L79.3578252,106.86539 L79.010366,108.119591 Z M85.3308768,109.738082 C84.2956432,109.500643 83.2389774,109.241736 82.1595807,108.963965 L82.48301,107.703909 C83.5507165,107.978428 84.5963415,108.235383 85.6211839,108.470221 L85.3308768,109.738082 Z M108.12745,110.393155 L107.786486,109.138304 C108.79639,108.862484 109.81214,108.527466 110.805809,108.14366 L111.272768,109.35883 C110.238184,109.757598 109.17957,110.106276 108.12745,110.393155 L108.12745,110.393155 Z M91.7553008,110.97602 C90.7317573,110.823799 89.645866,110.636449 88.5281513,110.419176 L88.7749448,109.142207 C89.8744747,109.356228 90.9408823,109.540324 91.9455915,109.688643 L91.7553008,110.97602 Z M101.604309,111.476269 L101.518581,110.177833 C102.592782,110.106927 103.656592,109.983978 104.680135,109.815494 L104.891858,111.098318 C103.826749,111.275259 102.720725,111.40211 101.604309,111.476269 L101.604309,111.476269 Z M98.3031214,111.551729 C97.2438578,111.530913 96.1378334,111.469764 95.016222,111.368283 L95.1324747,110.072449 C96.2242111,110.171328 97.2990616,110.230525 98.3284502,110.250691 L98.3031214,111.551729 Z" id="Fill-129-Copy" fill="#A6C9F2" transform="translate(106.940568, 71.469349) rotate(77.000000) translate(-106.940568, -71.469349) "></path>
                    <path d="M354.432849,120.864573 C355.350817,120.889054 356.076531,121.655857 356.051898,122.575326 C356.027265,123.494989 355.261715,124.221697 354.343747,124.197024 C353.425779,124.17235 352.700257,123.40574 352.72489,122.486271 C352.749331,121.566608 353.514882,120.8399 354.432849,120.864573 M347.79192,124.126281 L348.906953,124.156159 C349.171951,124.163291 349.395573,124.329836 349.499494,124.591798 C349.65576,124.979055 349.855327,125.34877 350.099156,125.688608 C350.259271,125.921463 350.276399,126.205978 350.140917,126.43093 L349.605917,127.299704 C349.373827,127.682527 349.30012,128.131274 349.405581,128.566528 C349.511233,129.00159 349.778733,129.37304 350.154773,129.60551 C350.918976,130.07681 351.998791,129.815619 352.462971,129.056141 L352.998164,128.175031 C353.133646,127.956247 353.389407,127.839627 353.678268,127.878179 C354.108,127.94526 354.570063,127.951621 354.996909,127.90131 C355.281344,127.871818 355.53672,128.002124 355.660078,128.234016 L356.112519,129.067514 C356.535515,129.850701 357.599742,130.169528 358.381843,129.74584 C358.77578,129.534188 359.062909,129.177388 359.191463,128.748495 C359.320017,128.319794 359.270559,127.861409 359.059253,127.466634 L358.565629,126.55796 C358.442078,126.332429 358.474217,126.061407 358.63414,125.843588 C358.902409,125.49257 359.122183,125.109361 359.299426,124.706491 C359.411429,124.443951 359.656221,124.277598 359.921219,124.28473 L360.900769,124.310946 C361.818737,124.335619 362.590446,123.602935 362.615271,122.677297 C362.639905,121.751659 361.908417,120.978688 360.990449,120.954014 L359.862908,120.923751 C359.610418,120.917004 359.392762,120.75682 359.282105,120.512977 C359.119489,120.138057 358.912994,119.786654 358.669165,119.452792 C358.496733,119.219744 358.473832,118.9227 358.615472,118.69794 L359.17626,117.780399 C359.659877,116.990657 359.410082,115.95264 358.621631,115.468424 C358.372798,115.319613 358.085283,115.231714 357.789686,115.223811 C357.191949,115.207811 356.629044,115.513723 356.319398,116.024154 L355.68779,117.04463 C355.571553,117.245487 355.346391,117.362878 355.087743,117.355939 L355.014036,117.34765 C354.639152,117.300617 354.244445,117.302351 353.867443,117.341675 C353.589166,117.37136 353.333597,117.241054 353.210239,117.009162 L352.669851,116.006613 C352.240889,115.223039 351.182628,114.904598 350.394368,115.334263 C349.581091,115.775685 349.282415,116.79886 349.723309,117.607299 L350.292949,118.666328 C350.416307,118.891858 350.384361,119.168855 350.218088,119.392844 C349.981764,119.701454 349.775269,120.04187 349.611883,120.389418 C349.493913,120.651765 349.261631,120.806167 348.996633,120.799034 L347.8816,120.769157 C346.957474,120.74429 346.185765,121.477167 346.16094,122.402805 C346.136114,123.328443 346.867602,124.101414 347.79192,124.126281" id="Fill-33" fill="#94BEEF"></path>
                    <path d="M9.83201771,229.300417 L27.571127,229.300417 C28.9495936,229.300417 30.0670615,230.417885 30.0670615,231.796351 L30.0670615,231.796351 C30.0670615,233.174818 28.9495936,234.292286 27.571127,234.292286 L9.83201771,234.292286 C8.45355117,234.292286 7.33608324,233.174818 7.33608324,231.796351 L7.33608324,231.796351 C7.33608324,230.417885 8.45355117,229.300417 9.83201771,229.300417 Z" id="Rectangle-9" fill-opacity="0.53662817" fill="#CCE3F7" transform="translate(18.701572, 231.796351) rotate(-19.000000) translate(-18.701572, -231.796351) "></path>
                    <path d="M14.3782134,239.058202 L32.1173227,239.058202 C33.4957892,239.058202 34.6132572,240.17567 34.6132572,241.554137 L34.6132572,241.554137 C34.6132572,242.932603 33.4957892,244.050071 32.1173227,244.050071 L14.3782134,244.050071 C12.9997468,244.050071 11.8822789,242.932603 11.8822789,241.554137 L11.8822789,241.554137 C11.8822789,240.17567 12.9997468,239.058202 14.3782134,239.058202 Z" id="Rectangle-9-Copy" fill-opacity="0.53662817" fill="#CCE3F7" transform="translate(23.247768, 241.554137) rotate(-19.000000) translate(-23.247768, -241.554137) "></path>
                    <g id="Group-5" transform="translate(382.982092, 89.428232) rotate(23.000000) translate(-382.982092, -89.428232) translate(309.982092, 45.928232)">
                        <path d="M59.132237,1.86790035 L59.0192315,0.572066436 C60.0707016,0.480343253 61.1767261,0.424398616 62.3080793,0.406184083 L62.3282125,1.70722215 C61.2286826,1.72478616 60.1531826,1.77877924 59.132237,1.86790035 L59.132237,1.86790035 Z M68.7487397,1.96157509 C67.6388185,1.86594879 66.5587723,1.79569273 65.5365277,1.75275848 L65.5910821,0.453021453 C66.6315114,0.496606228 67.7316908,0.567512803 68.8604462,0.665741176 L68.7487397,1.96157509 Z M75.1575766,2.72918754 C74.0658402,2.56850934 72.9994326,2.42409412 71.955756,2.29724291 L72.1116255,1.00596263 C73.1663429,1.13411488 74.2437913,1.27983114 75.3465685,1.44181038 L75.1575766,2.72918754 Z M52.8610848,2.97118062 L52.5155739,1.71697993 C53.5586011,1.42945052 54.6451418,1.18680692 55.7446717,0.994903806 L55.9667859,2.27707682 C54.9081717,2.4611737 53.8638457,2.69471003 52.8610848,2.97118062 L52.8610848,2.97118062 Z M81.4573049,3.89101453 C80.6656174,3.66853702 79.8739299,3.48899377 79.1010766,3.35758893 L78.3529027,3.23138824 L78.5672234,1.94856471 L79.3179951,2.0747654 C80.1363103,2.21397647 80.9741092,2.40327751 81.8086609,2.63941592 L81.4573049,3.89101453 Z M46.9464842,5.27857163 L46.3541799,4.12129827 C47.338756,3.61519446 48.354506,3.15657855 49.3735033,2.75976194 L49.8450087,3.97167889 C48.8669272,4.35288304 47.8920929,4.79328443 46.9464842,5.27857163 L46.9464842,5.27857163 Z M87.3407315,6.28687612 C86.3594027,5.77556817 85.3878158,5.32020484 84.4525984,4.93444706 L84.9474842,3.73163737 C85.9184217,4.13170657 86.9250793,4.60398339 87.9401799,5.13350588 L87.3407315,6.28687612 Z M41.5423565,8.69119446 L40.7798946,7.63735363 C41.4436391,7.15596955 42.1138783,6.68889689 42.7886636,6.23418408 C43.021169,6.077409 43.2549734,5.92388651 43.4881283,5.77426713 L44.1882424,6.8703917 C43.962881,7.01480692 43.738169,7.16312526 43.5128076,7.31404567 C42.8510114,7.75965121 42.193112,8.21891765 41.5423565,8.69119446 L41.5423565,8.69119446 Z M92.8292886,9.61623253 C91.8771853,8.96961661 90.993275,8.3984609 90.1269,7.86958893 L90.8029842,6.75850242 C91.6868946,7.29843322 92.5883402,7.88064775 93.5586283,8.53897301 L92.8292886,9.61623253 Z M36.5363457,12.726364 L35.6673728,11.7590422 C36.4662043,11.0402187 37.3079,10.3239972 38.1723266,9.62924291 L38.9854462,10.6434021 C38.1405033,11.3231945 37.3163429,12.0238035 36.5363457,12.726364 L36.5363457,12.726364 Z M98.0768973,13.4042048 C97.214419,12.7556374 96.3467451,12.109672 95.4732261,11.476717 L96.2343891,10.4222256 C97.1137533,11.0603848 97.9879217,11.7102533 98.8568946,12.3633744 L98.0768973,13.4042048 Z M103.275797,17.3125232 C102.410721,16.6750145 101.542397,16.0218934 100.668878,15.3622671 L101.451473,14.3233882 C102.319797,14.9797619 103.184223,15.630281 104.045403,16.264537 L103.275797,17.3125232 Z M32.0537967,17.3144747 L31.064025,16.4714021 C31.7576446,15.6550007 32.5058185,14.8353467 33.289063,14.0358588 L34.216487,14.9465855 C33.4546745,15.7246062 32.7272832,16.5208415 32.0537967,17.3144747 L32.0537967,17.3144747 Z M108.67278,21.0230837 C107.810302,20.4877066 106.913403,19.8970353 105.932723,19.2165924 L106.670506,18.1471391 C107.634949,18.8145716 108.513014,19.3935336 109.356658,19.9172014 L108.67278,21.0230837 Z M28.3512451,22.5069176 L27.2289842,21.8524955 C27.7667342,20.9268069 28.3726772,19.9920111 29.0299272,19.0741287 L30.085294,19.8326339 C29.4520739,20.7173398 28.8682125,21.6163571 28.3512451,22.5069176 L28.3512451,22.5069176 Z M36.5194598,27.6186962 C35.5017614,27.3467792 34.4658783,27.1665855 33.4390875,27.0839696 L33.54365,25.7874851 C34.6477261,25.8759557 35.7621935,26.0691599 36.8539299,26.3612429 L36.5194598,27.6186962 Z M27.2517152,27.7227792 L26.8964625,26.4711806 C27.9862505,26.160883 29.092275,25.9449107 30.1846609,25.8297689 L30.3203973,27.1236512 C29.3020495,27.2309869 28.270063,27.4319972 27.2517152,27.7227792 L27.2517152,27.7227792 Z M25.7930359,28.3062948 L24.5499761,27.9289938 C24.864313,26.8907654 25.2559353,25.8414782 25.7138022,24.8091045 L26.9010087,25.3379765 C26.4645739,26.3209107 26.0917859,27.3194574 25.7930359,28.3062948 L25.7930359,28.3062948 Z M42.1307641,30.2897273 C41.2851717,29.663928 40.3856745,29.1239972 39.4582505,28.6855474 L40.0128864,27.5087585 C41.0162967,27.9836374 41.9891826,28.5671529 42.9023185,29.2430422 L42.1307641,30.2897273 Z M21.519612,30.3196512 L20.8344353,29.2144194 C21.8021255,28.6120388 22.7880005,28.0799142 23.7628348,27.6336581 L24.3031826,28.8169522 C23.3777071,29.2404401 22.4411908,29.7458934 21.519612,30.3196512 L21.519612,30.3196512 Z M16.499313,34.227319 L15.6108565,33.2782118 C16.4330685,32.5066962 17.2767125,31.780717 18.1197071,31.1217412 L18.9185386,32.1469592 C18.1073674,32.7818657 17.2929489,33.4824747 16.499313,34.227319 L16.499313,34.227319 Z M24.8052125,34.5259073 L23.5062995,34.5050907 C23.5231853,33.3992083 23.6212533,32.2796651 23.7985549,31.1770353 L25.0805821,31.3832498 C24.9136717,32.4240803 24.8214489,33.4818242 24.8052125,34.5259073 L24.8052125,34.5259073 Z M46.3704163,34.8485647 C45.8144815,33.970364 45.172169,33.1376997 44.4603647,32.3739903 L45.4105196,31.4860318 C46.1762288,32.3089384 46.8685495,33.2060042 47.4673484,34.1512083 L46.3704163,34.8485647 Z M12.1797777,38.9526893 L11.1627288,38.1427931 C11.8556989,37.2704471 12.5739978,36.4254228 13.2981418,35.6311391 L14.2567397,36.5086893 C13.5527288,37.2808554 12.8539136,38.1031114 12.1797777,38.9526893 L12.1797777,38.9526893 Z M48.6038973,40.6303779 C48.4395848,39.6214228 48.1622668,38.6124678 47.7803864,37.6327862 L48.9903239,37.1592083 C49.4053266,38.2247585 49.7066745,39.3215336 49.8865739,40.4209107 L48.6038973,40.6303779 Z M24.3609842,41.130627 C24.0706772,40.1600526 23.8544082,39.1016581 23.6978891,37.8955958 L24.3363049,37.7602879 L24.9818647,37.6887308 L24.3363049,37.7602879 L24.985112,37.7186547 C25.1325386,38.8648692 25.335169,39.8556097 25.6053429,40.7572291 L24.3609842,41.130627 Z M8.49930761,44.2179903 L7.39328315,43.5355958 C7.96935109,42.5988484 8.57594348,41.6731599 9.19682391,40.7839003 L10.2612832,41.5287446 C9.65469076,42.3978381 9.06173696,43.30271 8.49930761,44.2179903 L8.49930761,44.2179903 Z M28.0511962,46.8200664 C27.3679679,46.2703779 26.7652723,45.6556374 26.2599951,44.9927585 C26.0774978,44.754018 25.9066908,44.5074713 25.7475739,44.2557204 L26.8458049,43.5603156 C26.9847886,43.7808415 27.1335141,43.9955128 27.2919815,44.2036789 C27.733612,44.7826408 28.2635685,45.3219211 28.8643158,45.8059073 L28.0511962,46.8200664 Z M49.3254435,47.1772014 L48.1220005,46.6893121 C48.4525739,45.8703087 48.6616989,44.9225024 48.7441799,43.8719142 L48.7552207,43.7190422 L50.0508864,43.814018 L50.0391962,43.9701426 C49.9463239,45.1566893 49.706025,46.2345993 49.3254435,47.1772014 L49.3254435,47.1772014 Z M34.0775033,49.7552083 C32.8883484,49.3935197 31.8661038,49.0116651 30.9523185,48.5868761 L31.4991609,47.4068346 C32.3570929,47.8056028 33.3241337,48.1659903 34.455487,48.5101149 L34.0775033,49.7552083 Z M5.45595435,49.8788069 L4.27719076,49.3310699 C4.73051141,48.3526893 5.2266962,47.3619488 5.75210652,46.3874713 L6.89450054,47.0048138 C6.38207935,47.9565232 5.89823424,48.923845 5.45595435,49.8788069 L5.45595435,49.8788069 Z M40.4999788,51.2488 C39.4270766,51.1004817 38.3840495,50.8662948 37.5949598,50.6789453 L37.2546446,50.5976304 L37.5566418,49.3323709 L37.8937098,49.4123848 C38.6555223,49.5932291 39.6602315,49.8189592 40.6772804,49.9601218 L40.4999788,51.2488 Z M43.9089761,51.3216581 L43.7427152,50.0316789 C44.8162668,49.8924678 45.6949815,49.555499 46.4275685,48.9993052 L47.2114625,50.036883 C46.3061201,50.7231806 45.1949,51.1557758 43.9089761,51.3216581 L43.9089761,51.3216581 Z M3.17506304,55.862281 L1.92940543,55.4934367 C2.23465,54.4597619 2.59120163,53.4078727 2.99061739,52.3657412 L4.20315272,52.8321633 C3.81607663,53.8417689 3.47056576,54.8611322 3.17506304,55.862281 L3.17506304,55.862281 Z M1.90472609,62.1163709 L0.613606522,61.9745578 C0.731158152,60.8946962 0.904563043,59.7933675 1.12797609,58.7024471 L2.40026141,58.9639557 C2.18464185,60.0151945 2.01838098,61.076191 1.90472609,62.1163709 L1.90472609,62.1163709 Z M0.553207065,68.6007446 C0.459685326,67.6178104 0.412924457,66.6114574 0.412924457,65.6090076 L0.414872826,65.2830976 L1.71378587,65.29871 L1.7118375,65.6090076 C1.7118375,66.5704747 1.75665,67.535845 1.84562554,68.4784471 L0.553207065,68.6007446 Z M1.8806962,75.0974782 C1.54362826,74.0462394 1.26176413,72.9650768 1.04159837,71.8845647 L2.3138837,71.6243571 C2.52495707,72.6586824 2.79513098,73.6936581 3.11726141,74.7000111 L1.8806962,75.0974782 Z M4.55385924,81.1603156 C4.00441902,80.1988484 3.50173967,79.2029038 3.05881033,78.200454 L4.24601685,77.6735336 C4.67206033,78.6356512 5.15460652,79.5912637 5.68131576,80.5136997 L4.55385924,81.1603156 Z M8.36876685,86.5622256 C7.64722065,85.7172014 6.96269348,84.8390007 6.33531848,83.9529938 L7.39458207,83.2003433 C7.99987554,84.0544747 8.65907391,84.9014505 9.3552913,85.7165509 L8.36876685,86.5622256 Z" id="Fill-128" fill="#A6C9F2"></path>
                        <g id="Group-4" transform="translate(118.572050, 32.662853) rotate(-22.000000) translate(-118.572050, -32.662853) translate(95.572050, 16.662853)">
                            <rect id="Rectangle-10" fill="#CCE3F7" x="0" y="0" width="44.8125" height="31.2249135" rx="1.95"></rect>
                            <g id="Group-2" transform="translate(0.649457, 0.000000)">
                                <mask id="mask-2" fill="white">
                                    <use xlink:href="#path-1"></use>
                                </mask>
                                <use id="Path-4" fill="#A6C9F2" xlink:href="#path-1"></use>
                                <mask id="mask-4" fill="white">
                                    <use xlink:href="#path-3"></use>
                                </mask>
                                <use id="Path-4-Copy" fill="#CCE3F7" xlink:href="#path-3"></use>
                            </g>
                        </g>
                    </g>
                    <ellipse id="Oval-4" fill="#E8F5FF" cx="437.084239" cy="202.311419" rx="8.44293478" ry="8.4567474"></ellipse>
                    <g id="Group-3-Copy" transform="translate(47.085598, 15.937716) scale(-1, 1) translate(-47.085598, -15.937716) translate(24.029891, 3.252595)" fill="#94BEEF">
                        <rect id="Rectangle-11" x="0" y="0" width="45.4619565" height="20.0985036" rx="1.95"></rect>
                        <polygon id="Triangle" points="45.9490489 25.3702422 38.3179348 16.4741833 45.4619565 16.4741833"></polygon>
                    </g>
                    <g id="Group-3" transform="translate(40.915761, 10.408304)" fill="#CCE3F7">
                        <rect id="Rectangle-11" x="0" y="0" width="53.2554348" height="23.4186851" rx="1.95"></rect>
                        <polygon id="Triangle" points="53.9048913 29.9238754 44.8125 19.5155709 53.3245259 19.5155709"></polygon>
                    </g>
                    <ellipse id="Oval-7" fill="#FFFFFF" cx="56.1779891" cy="25.0449827" rx="2.92255435" ry="2.92733564"></ellipse>
                    <ellipse id="Oval-7-Copy" fill="#FFFFFF" cx="66.5692935" cy="25.0449827" rx="2.92255435" ry="2.92733564"></ellipse>
                    <ellipse id="Oval-7-Copy-2" fill="#FFFFFF" cx="76.9605978" cy="25.0449827" rx="2.92255435" ry="2.92733564"></ellipse>
                </g>
            </g>
        </g>
    </g>
</svg>